<svg xmlns="http://www.w3.org/2000/svg" viewBox="0 0 22 22" width="22" height="22">
	<style>
		tspan { white-space:pre }
		.shp0 { fill: #ffffff } 
	</style>
	<g id="Footer">
		<g id="Subsicribe">
			<g id="Subscribe">
				<path id="10" class="shp0" d="M10.93 22C10.93 22 6.82 14.5 6.83 14.51C6.86 14.55 0 10.43 0 10.43C0 10.43 20.38 0.6 21.17 0.21C21.68 0 22 0.47 21.85 0.89C21.68 1.23 10.93 22 10.93 22ZM19.17 3.47L8.2 13.85C8.8 15.2 10.93 19.28 10.93 19.28L19.17 3.47ZM7.51 13.15C7.51 13.15 7.53 13.16 7.53 13.17L18.28 2.99L2.73 10.43C2.73 10.43 7.5 13.14 7.51 13.15Z" />
			</g>
		</g>
	</g>
</svg>